<svg width="600" height="1900" viewBox="0 0 600 1900" fill="none" xmlns="http://www.w3.org/2000/svg">
<g clip-path="url(#clip0_413_156)">
<g opacity="0.7" filter="url(#filter0_f_413_156)">
<path d="M-96.7523 773.796C-69.7137 789.261 -50.6428 815.271 -27.5324 836.151C1.21199 862.019 36.1975 879.956 73.9801 888.196C104.959 894.9 137.326 894.999 167.177 905.544C225.418 925.978 265.307 986.623 266.311 1048.28C267.315 1109.94 232.234 1169.72 180.672 1203.53C163.111 1215.05 143.887 1223.8 123.67 1229.49C85.7522 1240.16 45.5413 1239.69 6.35883 1235.61C-61.3245 1228.56 -132.28 1190.12 -174.944 1135.93C-193.962 1111.71 -210.035 1085.32 -222.826 1057.31C-243.955 1011.24 -255.957 961.525 -258.167 910.898C-259.963 867.527 -258.167 819.447 -223.755 787.836C-189.343 756.225 -137.088 750.71 -96.7523 773.796Z" fill="#96B7FF" fill-opacity="0.8"/>
</g>
<path fill-rule="evenodd" clip-rule="evenodd" d="M-109.844 1700.39C-109.408 1700.8 -108.718 1700.79 -108.302 1700.35L269.912 1304.42L259.97 648.898C259.961 648.296 259.465 647.816 258.863 647.825C258.261 647.834 257.781 648.329 257.79 648.931L267.718 1303.56L-109.879 1698.85C-110.295 1699.28 -110.279 1699.97 -109.844 1700.39Z" fill="url(#paint0_radial_413_156)" fill-opacity="0.3"/>
<path fill-rule="evenodd" clip-rule="evenodd" d="M-119.259 1694.55C-118.823 1694.97 -118.133 1694.95 -117.717 1694.52L260.497 1298.58L250.555 643.064C250.546 642.462 250.05 641.982 249.448 641.991C248.846 642 248.366 642.495 248.375 643.097L258.303 1297.72L-119.294 1693.01C-119.71 1693.45 -119.694 1694.14 -119.259 1694.55Z" fill="url(#paint1_radial_413_156)" fill-opacity="0.3"/>
<path fill-rule="evenodd" clip-rule="evenodd" d="M-128.674 1688.72C-128.238 1689.14 -127.548 1689.12 -127.132 1688.68L251.082 1292.75L241.14 637.231C241.131 636.629 240.636 636.148 240.034 636.157C239.432 636.166 238.951 636.662 238.96 637.264L248.888 1291.89L-128.709 1687.18C-129.125 1687.61 -129.109 1688.3 -128.674 1688.72Z" fill="url(#paint2_radial_413_156)" fill-opacity="0.3"/>
<path fill-rule="evenodd" clip-rule="evenodd" d="M-138.088 1682.89C-137.653 1683.3 -136.963 1683.29 -136.547 1682.85L241.668 1286.91L231.726 631.397C231.717 630.795 231.221 630.314 230.619 630.323C230.017 630.332 229.536 630.828 229.546 631.43L239.474 1286.05L-138.123 1681.34C-138.539 1681.78 -138.523 1682.47 -138.088 1682.89Z" fill="url(#paint3_radial_413_156)" fill-opacity="0.3"/>
<path fill-rule="evenodd" clip-rule="evenodd" d="M-147.503 1677.05C-147.068 1677.47 -146.377 1677.45 -145.962 1677.02L232.253 1281.08L222.311 625.563C222.302 624.961 221.806 624.48 221.204 624.489C220.602 624.498 220.121 624.994 220.131 625.596L230.059 1280.22L-147.538 1675.51C-147.954 1675.95 -147.938 1676.64 -147.503 1677.05Z" fill="url(#paint4_radial_413_156)" fill-opacity="0.3"/>
<path fill-rule="evenodd" clip-rule="evenodd" d="M-156.918 1671.22C-156.483 1671.63 -155.792 1671.62 -155.377 1671.18L222.838 1275.25L212.896 619.729C212.887 619.127 212.391 618.646 211.789 618.655C211.187 618.664 210.707 619.16 210.716 619.762L220.644 1274.39L-156.953 1669.68C-157.369 1670.11 -157.353 1670.8 -156.918 1671.22Z" fill="url(#paint5_radial_413_156)" fill-opacity="0.3"/>
<path fill-rule="evenodd" clip-rule="evenodd" d="M-166.333 1665.38C-165.897 1665.8 -165.207 1665.78 -164.791 1665.35L213.423 1269.41L203.481 613.895C203.472 613.293 202.977 612.812 202.374 612.821C201.773 612.831 201.292 613.326 201.301 613.928L211.229 1268.55L-166.368 1663.84C-166.784 1664.28 -166.768 1664.97 -166.333 1665.38Z" fill="url(#paint6_radial_413_156)" fill-opacity="0.3"/>
<path fill-rule="evenodd" clip-rule="evenodd" d="M-175.747 1659.55C-175.312 1659.97 -174.622 1659.95 -174.206 1659.51L204.009 1263.58L194.067 608.061C194.058 607.459 193.562 606.978 192.96 606.987C192.358 606.997 191.877 607.492 191.887 608.094L201.815 1262.72L-175.782 1658.01C-176.198 1658.44 -176.182 1659.13 -175.747 1659.55Z" fill="url(#paint7_radial_413_156)" fill-opacity="0.3"/>
<path fill-rule="evenodd" clip-rule="evenodd" d="M-185.162 1653.72C-184.727 1654.13 -184.037 1654.12 -183.621 1653.68L194.594 1257.74L184.652 602.227C184.643 601.625 184.147 601.144 183.545 601.153C182.943 601.163 182.462 601.658 182.472 602.26L192.4 1256.88L-185.197 1652.17C-185.613 1652.61 -185.597 1653.3 -185.162 1653.72Z" fill="url(#paint8_radial_413_156)" fill-opacity="0.3"/>
<path fill-rule="evenodd" clip-rule="evenodd" d="M-194.577 1647.88C-194.142 1648.3 -193.451 1648.28 -193.036 1647.85L185.179 1251.91L175.237 596.393C175.228 595.791 174.732 595.31 174.13 595.319C173.528 595.329 173.048 595.824 173.057 596.426L182.985 1251.05L-194.612 1646.34C-195.028 1646.78 -195.012 1647.47 -194.577 1647.88Z" fill="url(#paint9_radial_413_156)" fill-opacity="0.3"/>
<path fill-rule="evenodd" clip-rule="evenodd" d="M-203.992 1642.05C-203.556 1642.46 -202.866 1642.45 -202.45 1642.01L175.764 1246.08L165.822 590.559C165.813 589.957 165.317 589.477 164.715 589.486C164.113 589.495 163.633 589.99 163.642 590.592L173.57 1245.22L-204.027 1640.51C-204.443 1640.94 -204.427 1641.63 -203.992 1642.05Z" fill="url(#paint10_radial_413_156)" fill-opacity="0.3"/>
<path fill-rule="evenodd" clip-rule="evenodd" d="M-213.406 1636.21C-212.971 1636.63 -212.281 1636.61 -211.865 1636.18L166.349 1240.24L156.407 584.725C156.398 584.123 155.903 583.643 155.301 583.652C154.699 583.661 154.218 584.156 154.227 584.758L164.156 1239.38L-213.442 1634.67C-213.858 1635.11 -213.842 1635.8 -213.406 1636.21Z" fill="url(#paint11_radial_413_156)" fill-opacity="0.3"/>
<path fill-rule="evenodd" clip-rule="evenodd" d="M-222.821 1630.38C-222.386 1630.8 -221.696 1630.78 -221.28 1630.35L156.934 1234.41L146.993 578.891C146.983 578.289 146.488 577.809 145.886 577.818C145.284 577.827 144.803 578.322 144.812 578.924L154.741 1233.55L-222.856 1628.84C-223.272 1629.27 -223.257 1629.96 -222.821 1630.38Z" fill="url(#paint12_radial_413_156)" fill-opacity="0.3"/>
<path fill-rule="evenodd" clip-rule="evenodd" d="M-232.236 1624.55C-231.801 1624.96 -231.111 1624.95 -230.695 1624.51L147.52 1228.57L137.578 573.057C137.569 572.455 137.073 571.975 136.471 571.984C135.869 571.993 135.388 572.488 135.398 573.09L145.326 1227.71L-232.271 1623.01C-232.687 1623.44 -232.671 1624.13 -232.236 1624.55Z" fill="url(#paint13_radial_413_156)" fill-opacity="0.3"/>
<path fill-rule="evenodd" clip-rule="evenodd" d="M-241.651 1618.71C-241.216 1619.13 -240.525 1619.11 -240.11 1618.68L138.105 1222.74L128.163 567.224C128.154 566.622 127.658 566.141 127.056 566.15C126.454 566.159 125.974 566.655 125.983 567.257L135.911 1221.88L-241.686 1617.17C-242.102 1617.61 -242.086 1618.3 -241.651 1618.71Z" fill="url(#paint14_radial_413_156)" fill-opacity="0.3"/>
<path fill-rule="evenodd" clip-rule="evenodd" d="M-251.065 1612.88C-250.63 1613.29 -249.94 1613.28 -249.524 1612.84L128.69 1216.91L118.748 561.39C118.739 560.788 118.244 560.307 117.642 560.316C117.04 560.325 116.559 560.821 116.568 561.423L126.497 1216.05L-251.101 1611.34C-251.517 1611.77 -251.501 1612.46 -251.065 1612.88Z" fill="url(#paint15_radial_413_156)" fill-opacity="0.3"/>
<path fill-rule="evenodd" clip-rule="evenodd" d="M-260.48 1607.04C-260.045 1607.46 -259.355 1607.44 -258.939 1607.01L119.275 1211.07L109.333 555.556C109.324 554.954 108.829 554.473 108.227 554.482C107.625 554.491 107.144 554.987 107.153 555.589L117.082 1210.21L-260.516 1605.5C-260.931 1605.94 -260.916 1606.63 -260.48 1607.04Z" fill="url(#paint16_radial_413_156)" fill-opacity="0.3"/>
<path fill-rule="evenodd" clip-rule="evenodd" d="M-269.895 1601.21C-269.46 1601.63 -268.77 1601.61 -268.354 1601.18L109.86 1205.24L99.9183 549.722C99.9092 549.12 99.4138 548.639 98.8117 548.648C98.2097 548.657 97.7291 549.153 97.7383 549.755L107.667 1204.38L-269.93 1599.67C-270.346 1600.1 -270.331 1600.79 -269.895 1601.21Z" fill="url(#paint17_radial_413_156)" fill-opacity="0.3"/>
<path fill-rule="evenodd" clip-rule="evenodd" d="M-279.31 1595.38C-278.875 1595.79 -278.185 1595.78 -277.769 1595.34L100.446 1199.41L90.504 543.888C90.4949 543.286 89.9994 542.805 89.3974 542.814C88.7954 542.823 88.3148 543.319 88.3239 543.921L98.2523 1198.54L-279.345 1593.84C-279.761 1594.27 -279.745 1594.96 -279.31 1595.38Z" fill="url(#paint18_radial_413_156)" fill-opacity="0.3"/>
<path fill-rule="evenodd" clip-rule="evenodd" d="M-288.724 1589.54C-288.289 1589.96 -287.599 1589.94 -287.183 1589.51L91.0315 1193.57L81.0895 538.054C81.0804 537.452 80.585 536.971 79.9829 536.98C79.381 536.989 78.9003 537.485 78.9095 538.087L88.8378 1192.71L-288.76 1588C-289.176 1588.44 -289.16 1589.13 -288.724 1589.54Z" fill="url(#paint19_radial_413_156)" fill-opacity="0.3"/>
<path fill-rule="evenodd" clip-rule="evenodd" d="M-298.139 1583.71C-297.704 1584.13 -297.014 1584.11 -296.598 1583.67L81.6164 1187.74L71.6744 532.22C71.6654 531.618 71.1699 531.137 70.5679 531.146C69.9659 531.155 69.4852 531.651 69.4944 532.253L79.4227 1186.88L-298.175 1582.17C-298.591 1582.6 -298.575 1583.29 -298.139 1583.71Z" fill="url(#paint20_radial_413_156)" fill-opacity="0.3"/>
<path fill-rule="evenodd" clip-rule="evenodd" d="M-307.554 1577.88C-307.119 1578.29 -306.429 1578.28 -306.013 1577.84L72.2015 1181.9L62.2595 526.386C62.2505 525.784 61.755 525.303 61.1529 525.312C60.551 525.321 60.0703 525.817 60.0795 526.419L70.0078 1181.04L-307.59 1576.33C-308.006 1576.77 -307.99 1577.46 -307.554 1577.88Z" fill="url(#paint21_radial_413_156)" fill-opacity="0.3"/>
<path fill-rule="evenodd" clip-rule="evenodd" d="M-316.969 1572.04C-316.534 1572.46 -315.844 1572.44 -315.428 1572.01L62.7861 1176.07L52.8441 520.552C52.8351 519.95 52.3396 519.469 51.7375 519.479C51.1356 519.488 50.6549 519.983 50.6641 520.585L60.5924 1175.21L-317.004 1570.5C-317.42 1570.94 -317.405 1571.63 -316.969 1572.04Z" fill="url(#paint22_radial_413_156)" fill-opacity="0.3"/>
<path fill-rule="evenodd" clip-rule="evenodd" d="M-326.384 1566.21C-325.948 1566.62 -325.258 1566.61 -324.842 1566.17L53.3722 1170.24L43.4302 514.718C43.4212 514.116 42.9257 513.636 42.3237 513.645C41.7217 513.654 41.241 514.149 41.2502 514.751L51.1785 1169.38L-326.419 1564.67C-326.835 1565.1 -326.819 1565.79 -326.384 1566.21Z" fill="url(#paint23_radial_413_156)" fill-opacity="0.3"/>
<path fill-rule="evenodd" clip-rule="evenodd" d="M-335.799 1560.37C-335.363 1560.79 -334.673 1560.77 -334.257 1560.34L43.9572 1164.4L34.0153 508.884C34.0062 508.282 33.5107 507.802 32.9087 507.811C32.3067 507.82 31.826 508.315 31.8352 508.917L41.7635 1163.54L-335.834 1558.83C-336.25 1559.27 -336.234 1559.96 -335.799 1560.37Z" fill="url(#paint24_radial_413_156)" fill-opacity="0.3"/>
<path fill-rule="evenodd" clip-rule="evenodd" d="M-345.214 1554.54C-344.778 1554.96 -344.088 1554.94 -343.672 1554.5L34.5422 1158.57L24.6003 503.05C24.5912 502.449 24.0957 501.968 23.4937 501.977C22.8917 501.986 22.411 502.481 22.4202 503.084L32.3485 1157.71L-345.249 1553C-345.665 1553.43 -345.649 1554.12 -345.214 1554.54Z" fill="url(#paint25_radial_413_156)" fill-opacity="0.3"/>
<path fill-rule="evenodd" clip-rule="evenodd" d="M-354.628 1548.71C-354.193 1549.12 -353.503 1549.11 -353.087 1548.67L25.127 1152.73L15.185 497.216C15.1759 496.615 14.6805 496.134 14.0784 496.143C13.4765 496.152 12.9958 496.648 13.005 497.25L22.9333 1151.87L-354.664 1547.16C-355.079 1547.6 -355.064 1548.29 -354.628 1548.71Z" fill="url(#paint26_radial_413_156)" fill-opacity="0.3"/>
<path fill-rule="evenodd" clip-rule="evenodd" d="M-364.043 1542.87C-363.607 1543.29 -362.917 1543.27 -362.501 1542.84L15.7128 1146.9L5.7709 491.383C5.76182 490.781 5.26636 490.3 4.66431 490.309C4.06234 490.318 3.58166 490.814 3.59085 491.416L13.5191 1146.04L-364.078 1541.33C-364.494 1541.77 -364.478 1542.46 -364.043 1542.87Z" fill="url(#paint27_radial_413_156)" fill-opacity="0.3"/>
<path fill-rule="evenodd" clip-rule="evenodd" d="M-373.458 1537.04C-373.022 1537.45 -372.332 1537.44 -371.916 1537L6.298 1141.07L-3.64392 485.549C-3.653 484.947 -4.14847 484.466 -4.75052 484.475C-5.35249 484.484 -5.83316 484.98 -5.82397 485.582L4.10434 1140.21L-373.493 1535.5C-373.909 1535.93 -373.893 1536.62 -373.458 1537.04Z" fill="url(#paint28_radial_413_156)" fill-opacity="0.3"/>
</g>
<defs>
<filter id="filter0_f_413_156" x="-503.635" y="514.651" width="1014.97" height="968.64" filterUnits="userSpaceOnUse" color-interpolation-filters="sRGB">
<feFlood flood-opacity="0" result="BackgroundImageFix"/>
<feBlend mode="normal" in="SourceGraphic" in2="BackgroundImageFix" result="shape"/>
<feGaussianBlur stdDeviation="122.5" result="effect1_foregroundBlur_413_156"/>
</filter>
<radialGradient id="paint0_radial_413_156" cx="0" cy="0" r="1" gradientUnits="userSpaceOnUse" gradientTransform="translate(277.764 1314.01) rotate(-163.113) scale(636.105 629.219)">
<stop stop-color="#96B7FF"/>
<stop offset="1" stop-color="#96B7FF" stop-opacity="0"/>
</radialGradient>
<radialGradient id="paint1_radial_413_156" cx="0" cy="0" r="1" gradientUnits="userSpaceOnUse" gradientTransform="translate(268.349 1308.17) rotate(-163.113) scale(636.105 629.219)">
<stop stop-color="#96B7FF"/>
<stop offset="1" stop-color="#96B7FF" stop-opacity="0"/>
</radialGradient>
<radialGradient id="paint2_radial_413_156" cx="0" cy="0" r="1" gradientUnits="userSpaceOnUse" gradientTransform="translate(258.934 1302.34) rotate(-163.113) scale(636.105 629.219)">
<stop stop-color="#96B7FF"/>
<stop offset="1" stop-color="#96B7FF" stop-opacity="0"/>
</radialGradient>
<radialGradient id="paint3_radial_413_156" cx="0" cy="0" r="1" gradientUnits="userSpaceOnUse" gradientTransform="translate(249.52 1296.51) rotate(-163.113) scale(636.105 629.219)">
<stop stop-color="#96B7FF"/>
<stop offset="1" stop-color="#96B7FF" stop-opacity="0"/>
</radialGradient>
<radialGradient id="paint4_radial_413_156" cx="0" cy="0" r="1" gradientUnits="userSpaceOnUse" gradientTransform="translate(240.105 1290.67) rotate(-163.113) scale(636.105 629.219)">
<stop stop-color="#96B7FF"/>
<stop offset="1" stop-color="#96B7FF" stop-opacity="0"/>
</radialGradient>
<radialGradient id="paint5_radial_413_156" cx="0" cy="0" r="1" gradientUnits="userSpaceOnUse" gradientTransform="translate(230.69 1284.84) rotate(-163.113) scale(636.105 629.219)">
<stop stop-color="#96B7FF"/>
<stop offset="1" stop-color="#96B7FF" stop-opacity="0"/>
</radialGradient>
<radialGradient id="paint6_radial_413_156" cx="0" cy="0" r="1" gradientUnits="userSpaceOnUse" gradientTransform="translate(221.275 1279) rotate(-163.113) scale(636.105 629.219)">
<stop stop-color="#96B7FF"/>
<stop offset="1" stop-color="#96B7FF" stop-opacity="0"/>
</radialGradient>
<radialGradient id="paint7_radial_413_156" cx="0" cy="0" r="1" gradientUnits="userSpaceOnUse" gradientTransform="translate(211.861 1273.17) rotate(-163.113) scale(636.105 629.219)">
<stop stop-color="#96B7FF"/>
<stop offset="1" stop-color="#96B7FF" stop-opacity="0"/>
</radialGradient>
<radialGradient id="paint8_radial_413_156" cx="0" cy="0" r="1" gradientUnits="userSpaceOnUse" gradientTransform="translate(202.446 1267.34) rotate(-163.113) scale(636.105 629.219)">
<stop stop-color="#96B7FF"/>
<stop offset="1" stop-color="#96B7FF" stop-opacity="0"/>
</radialGradient>
<radialGradient id="paint9_radial_413_156" cx="0" cy="0" r="1" gradientUnits="userSpaceOnUse" gradientTransform="translate(193.031 1261.5) rotate(-163.113) scale(636.105 629.219)">
<stop stop-color="#96B7FF"/>
<stop offset="1" stop-color="#96B7FF" stop-opacity="0"/>
</radialGradient>
<radialGradient id="paint10_radial_413_156" cx="0" cy="0" r="1" gradientUnits="userSpaceOnUse" gradientTransform="translate(183.616 1255.67) rotate(-163.113) scale(636.105 629.219)">
<stop stop-color="#96B7FF"/>
<stop offset="1" stop-color="#96B7FF" stop-opacity="0"/>
</radialGradient>
<radialGradient id="paint11_radial_413_156" cx="0" cy="0" r="1" gradientUnits="userSpaceOnUse" gradientTransform="translate(174.202 1249.84) rotate(-163.113) scale(636.105 629.219)">
<stop stop-color="#96B7FF"/>
<stop offset="1" stop-color="#96B7FF" stop-opacity="0"/>
</radialGradient>
<radialGradient id="paint12_radial_413_156" cx="0" cy="0" r="1" gradientUnits="userSpaceOnUse" gradientTransform="translate(164.787 1244) rotate(-163.113) scale(636.105 629.219)">
<stop stop-color="#96B7FF"/>
<stop offset="1" stop-color="#96B7FF" stop-opacity="0"/>
</radialGradient>
<radialGradient id="paint13_radial_413_156" cx="0" cy="0" r="1" gradientUnits="userSpaceOnUse" gradientTransform="translate(155.372 1238.17) rotate(-163.113) scale(636.105 629.219)">
<stop stop-color="#96B7FF"/>
<stop offset="1" stop-color="#96B7FF" stop-opacity="0"/>
</radialGradient>
<radialGradient id="paint14_radial_413_156" cx="0" cy="0" r="1" gradientUnits="userSpaceOnUse" gradientTransform="translate(145.957 1232.33) rotate(-163.113) scale(636.105 629.219)">
<stop stop-color="#96B7FF"/>
<stop offset="1" stop-color="#96B7FF" stop-opacity="0"/>
</radialGradient>
<radialGradient id="paint15_radial_413_156" cx="0" cy="0" r="1" gradientUnits="userSpaceOnUse" gradientTransform="translate(136.543 1226.5) rotate(-163.113) scale(636.105 629.219)">
<stop stop-color="#96B7FF"/>
<stop offset="1" stop-color="#96B7FF" stop-opacity="0"/>
</radialGradient>
<radialGradient id="paint16_radial_413_156" cx="0" cy="0" r="1" gradientUnits="userSpaceOnUse" gradientTransform="translate(127.128 1220.67) rotate(-163.113) scale(636.105 629.219)">
<stop stop-color="#96B7FF"/>
<stop offset="1" stop-color="#96B7FF" stop-opacity="0"/>
</radialGradient>
<radialGradient id="paint17_radial_413_156" cx="0" cy="0" r="1" gradientUnits="userSpaceOnUse" gradientTransform="translate(117.713 1214.83) rotate(-163.113) scale(636.105 629.219)">
<stop stop-color="#96B7FF"/>
<stop offset="1" stop-color="#96B7FF" stop-opacity="0"/>
</radialGradient>
<radialGradient id="paint18_radial_413_156" cx="0" cy="0" r="1" gradientUnits="userSpaceOnUse" gradientTransform="translate(108.298 1209) rotate(-163.113) scale(636.105 629.219)">
<stop stop-color="#96B7FF"/>
<stop offset="1" stop-color="#96B7FF" stop-opacity="0"/>
</radialGradient>
<radialGradient id="paint19_radial_413_156" cx="0" cy="0" r="1" gradientUnits="userSpaceOnUse" gradientTransform="translate(98.8838 1203.16) rotate(-163.113) scale(636.105 629.219)">
<stop stop-color="#96B7FF"/>
<stop offset="1" stop-color="#96B7FF" stop-opacity="0"/>
</radialGradient>
<radialGradient id="paint20_radial_413_156" cx="0" cy="0" r="1" gradientUnits="userSpaceOnUse" gradientTransform="translate(89.4687 1197.33) rotate(-163.113) scale(636.105 629.219)">
<stop stop-color="#96B7FF"/>
<stop offset="1" stop-color="#96B7FF" stop-opacity="0"/>
</radialGradient>
<radialGradient id="paint21_radial_413_156" cx="0" cy="0" r="1" gradientUnits="userSpaceOnUse" gradientTransform="translate(80.0537 1191.5) rotate(-163.113) scale(636.105 629.219)">
<stop stop-color="#96B7FF"/>
<stop offset="1" stop-color="#96B7FF" stop-opacity="0"/>
</radialGradient>
<radialGradient id="paint22_radial_413_156" cx="0" cy="0" r="1" gradientUnits="userSpaceOnUse" gradientTransform="translate(70.6384 1185.66) rotate(-163.113) scale(636.105 629.219)">
<stop stop-color="#96B7FF"/>
<stop offset="1" stop-color="#96B7FF" stop-opacity="0"/>
</radialGradient>
<radialGradient id="paint23_radial_413_156" cx="0" cy="0" r="1" gradientUnits="userSpaceOnUse" gradientTransform="translate(61.2246 1179.83) rotate(-163.113) scale(636.105 629.219)">
<stop stop-color="#96B7FF"/>
<stop offset="1" stop-color="#96B7FF" stop-opacity="0"/>
</radialGradient>
<radialGradient id="paint24_radial_413_156" cx="0" cy="0" r="1" gradientUnits="userSpaceOnUse" gradientTransform="translate(51.8095 1173.99) rotate(-163.113) scale(636.105 629.219)">
<stop stop-color="#96B7FF"/>
<stop offset="1" stop-color="#96B7FF" stop-opacity="0"/>
</radialGradient>
<radialGradient id="paint25_radial_413_156" cx="0" cy="0" r="1" gradientUnits="userSpaceOnUse" gradientTransform="translate(42.3945 1168.16) rotate(-163.113) scale(636.105 629.219)">
<stop stop-color="#96B7FF"/>
<stop offset="1" stop-color="#96B7FF" stop-opacity="0"/>
</radialGradient>
<radialGradient id="paint26_radial_413_156" cx="0" cy="0" r="1" gradientUnits="userSpaceOnUse" gradientTransform="translate(32.9793 1162.33) rotate(-163.113) scale(636.105 629.219)">
<stop stop-color="#96B7FF"/>
<stop offset="1" stop-color="#FFAE00" stop-opacity="0"/>
<stop offset="1" stop-color="#96B7FF" stop-opacity="0"/>
</radialGradient>
<radialGradient id="paint27_radial_413_156" cx="0" cy="0" r="1" gradientUnits="userSpaceOnUse" gradientTransform="translate(23.5651 1156.49) rotate(-163.113) scale(636.105 629.219)">
<stop stop-color="#96B7FF"/>
<stop offset="1" stop-color="#96B7FF" stop-opacity="0"/>
</radialGradient>
<radialGradient id="paint28_radial_413_156" cx="0" cy="0" r="1" gradientUnits="userSpaceOnUse" gradientTransform="translate(14.1503 1150.66) rotate(-163.113) scale(636.105 629.219)">
<stop stop-color="#96B7FF"/>
<stop offset="1" stop-color="#96B7FF" stop-opacity="0"/>
</radialGradient>
<clipPath id="clip0_413_156">
<rect width="600" height="1900" fill="white"/>
</clipPath>
</defs>
</svg>
